<mxfile host="app.diagrams.net" agent="Mozilla/5.0 (Macintosh; Intel Mac OS X 10.15; rv:135.0) Gecko/20100101 Firefox/135.0" version="26.0.11">
  <diagram name="Page-1" id="3A5oA0ZY7psmp9pbNICC">
    <mxGraphModel dx="2080" dy="683" grid="1" gridSize="10" guides="1" tooltips="1" connect="1" arrows="1" fold="1" page="1" pageScale="1" pageWidth="850" pageHeight="1100" math="0" shadow="0">
      <root>
        <mxCell id="0" />
        <mxCell id="1" parent="0" />
        <mxCell id="TNA2mjDO4vaGXBHrnFGO-5" value="" style="edgeStyle=orthogonalEdgeStyle;rounded=0;orthogonalLoop=1;jettySize=auto;html=1;" edge="1" parent="1" source="TNA2mjDO4vaGXBHrnFGO-1" target="TNA2mjDO4vaGXBHrnFGO-2">
          <mxGeometry relative="1" as="geometry" />
        </mxCell>
        <mxCell id="TNA2mjDO4vaGXBHrnFGO-1" value="app.js" style="rounded=1;whiteSpace=wrap;html=1;" vertex="1" parent="1">
          <mxGeometry x="200" y="240" width="120" height="60" as="geometry" />
        </mxCell>
        <mxCell id="TNA2mjDO4vaGXBHrnFGO-7" value="" style="edgeStyle=orthogonalEdgeStyle;rounded=0;orthogonalLoop=1;jettySize=auto;html=1;" edge="1" parent="1" source="TNA2mjDO4vaGXBHrnFGO-2" target="TNA2mjDO4vaGXBHrnFGO-3">
          <mxGeometry relative="1" as="geometry" />
        </mxCell>
        <mxCell id="TNA2mjDO4vaGXBHrnFGO-2" value="controller.js" style="rounded=1;whiteSpace=wrap;html=1;" vertex="1" parent="1">
          <mxGeometry x="400" y="240" width="120" height="60" as="geometry" />
        </mxCell>
        <mxCell id="TNA2mjDO4vaGXBHrnFGO-9" value="" style="edgeStyle=orthogonalEdgeStyle;rounded=0;orthogonalLoop=1;jettySize=auto;html=1;" edge="1" parent="1" source="TNA2mjDO4vaGXBHrnFGO-3">
          <mxGeometry relative="1" as="geometry">
            <mxPoint x="660" y="190" as="targetPoint" />
          </mxGeometry>
        </mxCell>
        <mxCell id="TNA2mjDO4vaGXBHrnFGO-3" value="DatabaseConnector" style="rounded=1;whiteSpace=wrap;html=1;" vertex="1" parent="1">
          <mxGeometry x="600" y="240" width="120" height="60" as="geometry" />
        </mxCell>
        <mxCell id="TNA2mjDO4vaGXBHrnFGO-12" style="edgeStyle=orthogonalEdgeStyle;rounded=0;orthogonalLoop=1;jettySize=auto;html=1;exitX=1;exitY=0.5;exitDx=0;exitDy=0;entryX=0;entryY=0.5;entryDx=0;entryDy=0;" edge="1" parent="1" source="TNA2mjDO4vaGXBHrnFGO-11" target="TNA2mjDO4vaGXBHrnFGO-1">
          <mxGeometry relative="1" as="geometry" />
        </mxCell>
        <mxCell id="TNA2mjDO4vaGXBHrnFGO-11" value="nextjs UI" style="swimlane;whiteSpace=wrap;html=1;" vertex="1" parent="1">
          <mxGeometry x="-40" y="205" width="120" height="130" as="geometry" />
        </mxCell>
        <mxCell id="TNA2mjDO4vaGXBHrnFGO-16" style="edgeStyle=orthogonalEdgeStyle;rounded=0;orthogonalLoop=1;jettySize=auto;html=1;exitX=0;exitY=0.5;exitDx=0;exitDy=0;entryX=0.5;entryY=1;entryDx=0;entryDy=0;dashed=1;endArrow=none;startFill=0;" edge="1" parent="1" source="TNA2mjDO4vaGXBHrnFGO-14" target="TNA2mjDO4vaGXBHrnFGO-11">
          <mxGeometry relative="1" as="geometry" />
        </mxCell>
        <mxCell id="TNA2mjDO4vaGXBHrnFGO-17" style="edgeStyle=orthogonalEdgeStyle;rounded=0;orthogonalLoop=1;jettySize=auto;html=1;exitX=1;exitY=0.5;exitDx=0;exitDy=0;entryX=0.5;entryY=1;entryDx=0;entryDy=0;dashed=1;endArrow=none;startFill=0;" edge="1" parent="1" source="TNA2mjDO4vaGXBHrnFGO-14" target="TNA2mjDO4vaGXBHrnFGO-2">
          <mxGeometry relative="1" as="geometry" />
        </mxCell>
        <mxCell id="TNA2mjDO4vaGXBHrnFGO-14" value="Models package" style="rounded=0;whiteSpace=wrap;html=1;" vertex="1" parent="1">
          <mxGeometry x="200" y="400" width="120" height="60" as="geometry" />
        </mxCell>
        <mxCell id="TNA2mjDO4vaGXBHrnFGO-29" style="edgeStyle=orthogonalEdgeStyle;rounded=0;orthogonalLoop=1;jettySize=auto;html=1;exitX=0.5;exitY=0;exitDx=0;exitDy=0;" edge="1" parent="1" source="TNA2mjDO4vaGXBHrnFGO-18" target="TNA2mjDO4vaGXBHrnFGO-22">
          <mxGeometry relative="1" as="geometry" />
        </mxCell>
        <mxCell id="TNA2mjDO4vaGXBHrnFGO-18" value="PostgreSQL DB" style="shape=process;whiteSpace=wrap;html=1;backgroundOutline=1;" vertex="1" parent="1">
          <mxGeometry x="600" y="130" width="120" height="60" as="geometry" />
        </mxCell>
        <mxCell id="TNA2mjDO4vaGXBHrnFGO-19" value="Auth" style="shape=cylinder3;whiteSpace=wrap;html=1;boundedLbl=1;backgroundOutline=1;size=15;" vertex="1" parent="1">
          <mxGeometry x="450" y="10" width="90" height="80" as="geometry" />
        </mxCell>
        <mxCell id="TNA2mjDO4vaGXBHrnFGO-20" value="Users" style="shape=cylinder3;whiteSpace=wrap;html=1;boundedLbl=1;backgroundOutline=1;size=15;" vertex="1" parent="1">
          <mxGeometry x="560" y="10" width="90" height="80" as="geometry" />
        </mxCell>
        <mxCell id="TNA2mjDO4vaGXBHrnFGO-21" value="Tasks" style="shape=cylinder3;whiteSpace=wrap;html=1;boundedLbl=1;backgroundOutline=1;size=15;" vertex="1" parent="1">
          <mxGeometry x="670" y="10" width="90" height="80" as="geometry" />
        </mxCell>
        <mxCell id="TNA2mjDO4vaGXBHrnFGO-22" value="TaskContent" style="shape=cylinder3;whiteSpace=wrap;html=1;boundedLbl=1;backgroundOutline=1;size=15;" vertex="1" parent="1">
          <mxGeometry x="780" y="10" width="90" height="80" as="geometry" />
        </mxCell>
        <mxCell id="TNA2mjDO4vaGXBHrnFGO-26" style="edgeStyle=orthogonalEdgeStyle;rounded=0;orthogonalLoop=1;jettySize=auto;html=1;exitX=0.5;exitY=0;exitDx=0;exitDy=0;entryX=0.5;entryY=1;entryDx=0;entryDy=0;entryPerimeter=0;" edge="1" parent="1" source="TNA2mjDO4vaGXBHrnFGO-18" target="TNA2mjDO4vaGXBHrnFGO-20">
          <mxGeometry relative="1" as="geometry">
            <Array as="points">
              <mxPoint x="660" y="110" />
              <mxPoint x="605" y="110" />
            </Array>
          </mxGeometry>
        </mxCell>
        <mxCell id="TNA2mjDO4vaGXBHrnFGO-27" style="edgeStyle=orthogonalEdgeStyle;rounded=0;orthogonalLoop=1;jettySize=auto;html=1;exitX=0.5;exitY=0;exitDx=0;exitDy=0;entryX=0.5;entryY=1;entryDx=0;entryDy=0;entryPerimeter=0;" edge="1" parent="1" source="TNA2mjDO4vaGXBHrnFGO-18" target="TNA2mjDO4vaGXBHrnFGO-21">
          <mxGeometry relative="1" as="geometry">
            <Array as="points">
              <mxPoint x="660" y="110" />
              <mxPoint x="715" y="110" />
            </Array>
          </mxGeometry>
        </mxCell>
        <mxCell id="TNA2mjDO4vaGXBHrnFGO-28" style="edgeStyle=orthogonalEdgeStyle;rounded=0;orthogonalLoop=1;jettySize=auto;html=1;exitX=0.5;exitY=0;exitDx=0;exitDy=0;entryX=0.5;entryY=1;entryDx=0;entryDy=0;entryPerimeter=0;" edge="1" parent="1" source="TNA2mjDO4vaGXBHrnFGO-18" target="TNA2mjDO4vaGXBHrnFGO-19">
          <mxGeometry relative="1" as="geometry" />
        </mxCell>
      </root>
    </mxGraphModel>
  </diagram>
</mxfile>
